<?xml version="1.0" encoding="UTF-8"?>
<svg xmlns="http://www.w3.org/2000/svg" width="172" height="44" viewBox="0 0 172 44" fill="none">
  <path d="M10.1975 8.57544C11.0015 8.79144 11.6135 9.16344 12.0335 9.69144C12.4535 10.2074 12.6635 10.8554 12.6635 11.6354C12.6635 12.7394 12.2555 13.5974 11.4395 14.2094C10.6235 14.8214 9.4415 15.1274 7.8935 15.1274H1.9175V2.52744H7.5515C8.9675 2.52744 10.0715 2.80944 10.8635 3.37344C11.6555 3.93744 12.0515 4.73544 12.0515 5.76744C12.0515 6.42744 11.8895 6.99744 11.5655 7.47744C11.2535 7.95744 10.7975 8.32344 10.1975 8.57544ZM4.2215 7.90944H7.3535C8.1095 7.90944 8.6855 7.75944 9.0815 7.45944C9.4775 7.15944 9.6755 6.71544 9.6755 6.12744C9.6755 5.53944 9.4775 5.09544 9.0815 4.79544C8.6855 4.48344 8.1095 4.32744 7.3535 4.32744H4.2215V7.90944ZM7.8215 13.3274C9.4775 13.3274 10.3055 12.7034 10.3055 11.4554C10.3055 10.2314 9.4775 9.61944 7.8215 9.61944H4.2215V13.3274H7.8215ZM23.7892 5.51544V15.1274H21.5392V7.42344H17.9392L17.8492 9.33144C17.7892 10.6034 17.6692 11.6714 17.4892 12.5354C17.3212 13.3874 17.0272 14.0654 16.6072 14.5694C16.1992 15.0614 15.6352 15.3074 14.9152 15.3074C14.5792 15.3074 14.1652 15.2414 13.6732 15.1094L13.7812 13.2194C13.9492 13.2554 14.0932 13.2734 14.2132 13.2734C14.6692 13.2734 15.0112 13.0934 15.2392 12.7334C15.4672 12.3614 15.6112 11.9234 15.6712 11.4194C15.7432 10.9034 15.8032 10.1714 15.8512 9.22344L16.0132 5.51544H23.7892ZM30.4014 5.40744C31.8174 5.40744 32.8974 5.74944 33.6414 6.43344C34.3974 7.10544 34.7754 8.12544 34.7754 9.49344V15.1274H32.6514V13.9574C32.3754 14.3774 31.9794 14.7014 31.4634 14.9294C30.9594 15.1454 30.3474 15.2534 29.6274 15.2534C28.9074 15.2534 28.2774 15.1334 27.7374 14.8934C27.1974 14.6414 26.7774 14.2994 26.4774 13.8674C26.1894 13.4234 26.0454 12.9254 26.0454 12.3734C26.0454 11.5094 26.3634 10.8194 26.9994 10.3034C27.6474 9.77544 28.6614 9.51144 30.0414 9.51144H32.5254V9.36744C32.5254 8.69544 32.3214 8.17944 31.9134 7.81944C31.5174 7.45944 30.9234 7.27944 30.1314 7.27944C29.5914 7.27944 29.0574 7.36344 28.5294 7.53144C28.0134 7.69944 27.5754 7.93344 27.2154 8.23344L26.3334 6.59544C26.8374 6.21144 27.4434 5.91744 28.1514 5.71344C28.8594 5.50944 29.6094 5.40744 30.4014 5.40744ZM30.0954 13.6154C30.6594 13.6154 31.1574 13.4894 31.5894 13.2374C32.0334 12.9734 32.3454 12.6014 32.5254 12.1214V11.0054H30.2034C28.9074 11.0054 28.2594 11.4314 28.2594 12.2834C28.2594 12.6914 28.4214 13.0154 28.7454 13.2554C29.0694 13.4954 29.5194 13.6154 30.0954 13.6154ZM47.8196 13.2194V17.2694H45.7136V15.1274H38.2976V17.2694H36.2096V13.2194H36.6596C37.2716 13.1954 37.6856 12.8054 37.9016 12.0494C38.1296 11.2814 38.2796 10.2014 38.3516 8.80944L38.4776 5.51544H46.3976V13.2194H47.8196ZM40.4036 8.97144C40.3556 10.0754 40.2656 10.9754 40.1336 11.6714C40.0016 12.3674 39.7616 12.8834 39.4136 13.2194H44.1476V7.42344H40.4576L40.4036 8.97144ZM49.8291 5.51544H52.0791V11.8514L57.3891 5.51544H59.4411V15.1274H57.1911V8.79144L51.8991 15.1274H49.8291V5.51544ZM71.1798 5.51544V15.1274H68.9298V7.42344H65.3298L65.2398 9.33144C65.1798 10.6034 65.0598 11.6714 64.8798 12.5354C64.7118 13.3874 64.4178 14.0654 63.9978 14.5694C63.5898 15.0614 63.0258 15.3074 62.3058 15.3074C61.9698 15.3074 61.5558 15.2414 61.0638 15.1094L61.1718 13.2194C61.3398 13.2554 61.4838 13.2734 61.6038 13.2734C62.0598 13.2734 62.4018 13.0934 62.6298 12.7334C62.8578 12.3614 63.0018 11.9234 63.0618 11.4194C63.1338 10.9034 63.1938 10.1714 63.2418 9.22344L63.4038 5.51544H71.1798ZM83.21 10.3754C83.21 10.5314 83.198 10.7534 83.174 11.0414H75.632C75.764 11.7494 76.106 12.3134 76.658 12.7334C77.222 13.1414 77.918 13.3454 78.746 13.3454C79.802 13.3454 80.672 12.9974 81.356 12.3014L82.562 13.6874C82.13 14.2034 81.584 14.5934 80.924 14.8574C80.264 15.1214 79.52 15.2534 78.692 15.2534C77.636 15.2534 76.706 15.0434 75.902 14.6234C75.098 14.2034 74.474 13.6214 74.03 12.8774C73.598 12.1214 73.382 11.2694 73.382 10.3214C73.382 9.38544 73.592 8.54544 74.012 7.80144C74.444 7.04544 75.038 6.45744 75.794 6.03744C76.55 5.61744 77.402 5.40744 78.35 5.40744C79.286 5.40744 80.12 5.61744 80.852 6.03744C81.596 6.44544 82.172 7.02744 82.58 7.78344C83 8.52744 83.21 9.39144 83.21 10.3754ZM78.35 7.20744C77.63 7.20744 77.018 7.42344 76.514 7.85544C76.022 8.27544 75.722 8.83944 75.614 9.54744H81.068C80.972 8.85144 80.678 8.28744 80.186 7.85544C79.694 7.42344 79.082 7.20744 78.35 7.20744ZM85.6709 5.51544H87.9209V9.42144H92.7629V5.51544H95.0129V15.1274H92.7629V11.3294H87.9209V15.1274H85.6709V5.51544ZM114.829 15.1274L114.811 6.77544L110.671 13.6874H109.627L105.487 6.88344V15.1274H103.273V2.52744H105.199L110.185 10.8614L115.117 2.52744H117.025L117.061 15.1274H114.829ZM120.335 5.51544H122.585V11.8514L127.895 5.51544H129.947V15.1274H127.697V8.79144L122.405 15.1274H120.335V5.51544ZM132.974 5.51544H135.224V9.42144H140.066V5.51544H142.316V15.1274H140.066V11.3294H135.224V15.1274H132.974V5.51544ZM145.331 5.51544H147.581V11.8514L152.891 5.51544H154.943V15.1274H152.693V8.79144L147.401 15.1274H145.331V5.51544ZM157.97 5.51544H160.22V9.42144H165.062V5.51544H167.312V15.1274H165.062V11.3294H160.22V15.1274H157.97V5.51544Z" fill="white"></path>
  <path d="M8.6615 33.3795L5.1195 41.3315H3.7755L0.247498 33.3795H1.7035L4.4755 39.7215L7.2895 33.3795H8.6615ZM10.1341 33.3795H11.4921V40.1975H15.7621V41.3315H10.1341V33.3795ZM22.3388 39.4415H18.0688L17.2288 41.3315H15.8988L19.5388 33.3795H20.8828L24.5368 41.3315H23.1648L22.3388 39.4415ZM21.8628 38.3635L20.2108 34.6115L18.5448 38.3635H21.8628ZM25.8841 33.3795H29.3421C30.2288 33.3795 31.0035 33.5429 31.6661 33.8695C32.3288 34.1962 32.8375 34.6629 33.1921 35.2695C33.5561 35.8669 33.7381 36.5622 33.7381 37.3555C33.7381 38.1489 33.5561 38.8489 33.1921 39.4555C32.8375 40.0529 32.3288 40.5149 31.6661 40.8415C31.0035 41.1682 30.2288 41.3315 29.3421 41.3315H25.8841V33.3795ZM29.2861 40.1975C30.2568 40.1975 31.0128 39.9455 31.5541 39.4415C32.0955 38.9282 32.3661 38.2329 32.3661 37.3555C32.3661 36.4689 32.0955 35.7735 31.5541 35.2695C31.0128 34.7562 30.2568 34.4995 29.2861 34.4995H27.2421V40.1975H29.2861ZM35.7142 33.3795H37.0722V41.3315H35.7142V33.3795ZM39.7747 33.3795H41.1327V40.1975H45.4027V41.3315H39.7747V33.3795ZM52.8345 40.1975V41.3315H46.8705V33.3795H52.6805V34.4995H48.2285V36.7395H52.1905V37.8455H48.2285V40.1975H52.8345ZM61.9248 33.3795V41.3315H60.8048L56.2128 35.7175V41.3315H54.8548V33.3795H55.9748L60.5668 39.0215V33.3795H61.9248ZM64.8959 41.4155C64.6439 41.4155 64.4292 41.3315 64.2519 41.1635C64.0839 40.9862 63.9999 40.7715 63.9999 40.5195C63.9999 40.2675 64.0839 40.0575 64.2519 39.8895C64.4199 39.7122 64.6346 39.6235 64.8959 39.6235C65.1572 39.6235 65.3719 39.7122 65.5399 39.8895C65.7172 40.0575 65.8059 40.2675 65.8059 40.5195C65.8059 40.7715 65.7172 40.9862 65.5399 41.1635C65.3719 41.3315 65.1572 41.4155 64.8959 41.4155ZM73.2041 41.3315L71.4961 38.9515C71.4215 38.9609 71.3001 38.9655 71.1321 38.9655H69.2421V41.3315H67.8841V33.3795H71.1321C72.1868 33.3795 73.0175 33.6269 73.6241 34.1215C74.2308 34.6162 74.5341 35.3022 74.5341 36.1795C74.5341 36.7862 74.3801 37.3042 74.0721 37.7335C73.7735 38.1629 73.3441 38.4849 72.7841 38.6995L74.6741 41.3315H73.2041ZM71.0481 37.8595C71.7388 37.8595 72.2615 37.7149 72.6161 37.4255C72.9801 37.1362 73.1621 36.7209 73.1621 36.1795C73.1621 35.6382 72.9801 35.2229 72.6161 34.9335C72.2615 34.6442 71.7388 34.4995 71.0481 34.4995H69.2421V37.8595H71.0481ZM80.1045 41.4435C79.0125 41.4435 78.1585 41.1355 77.5425 40.5195C76.9265 39.9035 76.6185 39.0402 76.6185 37.9295V33.3795H77.9765V37.9015C77.9765 38.6762 78.1585 39.2642 78.5225 39.6655C78.8865 40.0669 79.4185 40.2675 80.1185 40.2675C80.8091 40.2675 81.3365 40.0669 81.7005 39.6655C82.0738 39.2642 82.2605 38.6762 82.2605 37.9015V33.3795H83.5905V37.9295C83.5905 39.0402 83.2825 39.9035 82.6665 40.5195C82.0505 41.1355 81.1965 41.4435 80.1045 41.4435Z" fill="#68647D"></path>
  <a href="https://vladilen.ru/excel">
    <rect fill="black" fill-opacity="0" y="-1.533" width="84.729" height="17.066"></rect>
  </a>
</svg>
